<svg width="28" height="28" viewBox="0 0 28 28" fill="none" xmlns="http://www.w3.org/2000/svg">
<circle cx="15.4996" cy="12.5001" r="11.8056" fill="url(#paint0_linear_9838_112187)"/>
<path fill-rule="evenodd" clip-rule="evenodd" d="M16.0102 13.6689L14.6606 13.4713C13.6719 13.3231 12.9186 12.9774 12.4164 12.4341C11.8985 11.8744 11.6474 11.0841 11.6474 10.0799C11.6474 8.3348 12.6675 6.96836 14.433 6.53209V6.37569C14.433 5.84887 14.4487 5.65131 14.5742 5.39614C14.7312 5.0751 15.0686 4.86108 15.5002 4.86108C15.9317 4.86108 16.2692 5.0751 16.4261 5.39614C16.5516 5.65131 16.5673 5.84887 16.5673 6.37569V6.42508C17.1558 6.49093 17.658 6.63087 18.1289 6.8202C18.8194 7.1083 19.2745 7.61043 19.2745 8.23602C19.2745 8.5159 19.1568 8.86162 18.9449 9.12503C18.7644 9.35552 18.4898 9.52015 18.1445 9.52015C17.8307 9.52015 17.4697 9.37198 17.1715 9.24027C16.6929 9.02625 16.1514 8.91101 15.6493 8.91101C14.6919 8.91101 14.2996 9.47076 14.2996 9.8988C14.2996 10.1293 14.3467 10.3433 14.5193 10.5244C14.6606 10.6726 14.896 10.8125 15.2883 10.8701L16.638 11.0677C17.6423 11.2158 18.3643 11.5451 18.8351 12.039C19.4314 12.6481 19.6668 13.5207 19.6668 14.6073C19.6668 16.5664 18.3407 17.8011 16.5673 18.1715V18.6243C16.5673 19.1511 16.5516 19.3486 16.4261 19.6038C16.2692 19.9248 15.9317 20.1389 15.5002 20.1389C15.0686 20.1389 14.7312 19.9248 14.5742 19.6038C14.4487 19.3486 14.433 19.1511 14.433 18.6243V18.2621C13.8445 18.2127 13.2952 18.1139 12.793 17.8999C11.8828 17.5212 11.3335 17.0767 11.3335 16.2206C11.3335 15.9078 11.4747 15.5292 11.7101 15.2822C11.9299 15.0518 12.181 14.9694 12.4634 14.9694C12.7538 14.9694 12.9892 15.0765 13.5306 15.3152C14.0799 15.5621 14.6841 15.7432 15.3668 15.7432C16.4496 15.7432 16.9675 15.3481 16.9675 14.6731C16.9675 14.3932 16.9047 14.1627 16.7478 13.9817C16.6066 13.8335 16.3712 13.7182 16.0102 13.6689Z" fill="white"/>
<rect x="1" y="14" width="12" height="14" rx="2" fill="#612FFF"/>
<path d="M5.15936 22.9324L3.34048 21.3967C3.11349 21.2137 3 20.9527 3 20.6137C3 20.295 3.10453 20.0441 3.3136 19.8611L4.87264 18.417C5.18923 18.139 5.47595 18 5.7328 18C5.85824 18 5.98667 18.078 6.11808 18.2339C6.24949 18.3898 6.3152 18.5661 6.3152 18.7627C6.3152 18.8509 6.29429 18.9356 6.25248 19.017C6.21664 19.0983 6.15989 19.1831 6.08224 19.2712C6.00459 19.3594 5.89408 19.4645 5.75072 19.5865L4.68448 20.5832L5.7776 21.529C6.01653 21.7188 6.16885 21.8747 6.23456 21.9968C6.30027 22.1188 6.33312 22.2578 6.33312 22.4137C6.33312 22.6103 6.26741 22.7866 6.136 22.9426C6.00459 23.0985 5.87317 23.1765 5.74176 23.1765C5.55659 23.1765 5.36245 23.0951 5.15936 22.9324Z" fill="white"/>
<path d="M8.84064 22.9324C8.63755 23.0951 8.44341 23.1765 8.25824 23.1765C8.12683 23.1765 7.99541 23.0985 7.864 22.9426C7.73259 22.7866 7.66688 22.6103 7.66688 22.4137C7.66688 22.2578 7.69973 22.1188 7.76544 21.9968C7.83115 21.8747 7.98347 21.7188 8.2224 21.529L9.31552 20.5832L8.24928 19.5865C8.04021 19.4034 7.89387 19.2543 7.81024 19.139C7.72661 19.017 7.6848 18.8916 7.6848 18.7627C7.6848 18.5661 7.75051 18.3898 7.88192 18.2339C8.01333 18.078 8.14176 18 8.2672 18C8.52405 18 8.81077 18.139 9.12736 18.417L10.6864 19.8611C10.8955 20.0441 11 20.295 11 20.6137C11 20.9527 10.8865 21.2137 10.6595 21.3967L8.84064 22.9324Z" fill="white"/>
<defs>
<linearGradient id="paint0_linear_9838_112187" x1="6.92771" y1="3.94111" x2="27.3052" y2="24.3057" gradientUnits="userSpaceOnUse">
<stop stop-color="#612FFF"/>
<stop offset="1" stop-color="#D200A3"/>
</linearGradient>
</defs>
</svg>
