<svg width="32" height="28" viewBox="0 0 32 28" fill="none" xmlns="http://www.w3.org/2000/svg">
<path d="M21.4912 17.5C21.4912 19.026 20.254 20.2631 18.728 20.2631C17.202 20.2631 15.9648 19.026 15.9648 17.5C15.9648 15.9739 17.202 14.7368 18.728 14.7368C20.254 14.7368 21.4912 15.9739 21.4912 17.5Z" fill="white"/>
<circle cx="11.0519" cy="11.0528" r="10.4386" fill="#612FFF"/>
<path d="M11.408 5C11.6204 5 11.8483 5.02177 12.0918 5.0653C12.3353 5.10883 12.5761 5.17685 12.8144 5.26935C13.0579 5.36186 13.2884 5.47613 13.506 5.61216C13.7287 5.74276 13.9256 5.90056 14.0965 6.08557C14.2675 6.27057 14.4021 6.47735 14.5006 6.70589C14.6042 6.93443 14.656 7.18746 14.656 7.46497C14.656 7.601 14.6378 7.7316 14.6016 7.85675C14.5653 7.97646 14.5083 8.08529 14.4306 8.18324C14.3581 8.27574 14.2649 8.35192 14.1509 8.41178C14.0369 8.46619 13.8997 8.4934 13.7391 8.4934C13.5267 8.4934 13.3273 8.43082 13.1408 8.30567C12.9595 8.18052 12.8067 7.98735 12.6823 7.72616C12.6513 7.6663 12.602 7.59828 12.5347 7.5221C12.4725 7.44592 12.3871 7.37518 12.2783 7.30989C12.1747 7.24459 12.0478 7.19018 11.8976 7.14664C11.7473 7.09767 11.5738 7.07319 11.377 7.07319C11.0765 7.07319 10.8279 7.12216 10.631 7.2201C10.4394 7.31805 10.2865 7.44864 10.1726 7.61189C10.0586 7.76969 9.97832 7.95198 9.9317 8.15875C9.89026 8.36008 9.86954 8.56414 9.86954 8.77091V9.06475H11.8742C11.9571 9.06475 12.04 9.07019 12.1229 9.08107C12.2058 9.09196 12.2809 9.11916 12.3482 9.1627C12.4207 9.20623 12.4777 9.27424 12.5192 9.36675C12.5658 9.45381 12.5891 9.57624 12.5891 9.73405C12.5891 9.87008 12.5658 9.98163 12.5192 10.0687C12.4777 10.1503 12.4207 10.2156 12.3482 10.2646C12.2809 10.3136 12.2058 10.3462 12.1229 10.3625C12.04 10.3789 11.9571 10.387 11.8742 10.387H9.86954V11.1706H11.8742C11.9571 11.1706 12.04 11.176 12.1229 11.1869C12.2058 11.1978 12.2809 11.2277 12.3482 11.2767C12.4207 11.3202 12.4777 11.3882 12.5192 11.4807C12.5658 11.5732 12.5891 11.6984 12.5891 11.8562C12.5891 11.9977 12.5658 12.1092 12.5192 12.1909C12.4777 12.2725 12.4207 12.3378 12.3482 12.3867C12.2809 12.4303 12.2058 12.4602 12.1229 12.4765C12.04 12.4874 11.9571 12.4929 11.8742 12.4929H9.86954V12.7377C9.86954 12.9499 9.89026 13.1594 9.9317 13.3662C9.97832 13.573 10.0586 13.758 10.1726 13.9212C10.2865 14.0845 10.4394 14.2178 10.631 14.3212C10.8279 14.4191 11.0765 14.4681 11.377 14.4681C11.5738 14.4681 11.7473 14.4463 11.8976 14.4028C12.0478 14.3538 12.1747 14.2967 12.2783 14.2314C12.3871 14.1661 12.4725 14.0954 12.5347 14.0192C12.602 13.943 12.6513 13.875 12.6823 13.8151C12.8067 13.5539 12.9595 13.3608 13.1408 13.2356C13.3273 13.1105 13.5267 13.0479 13.7391 13.0479C13.8997 13.0479 14.0369 13.0778 14.1509 13.1377C14.2649 13.1921 14.3581 13.2683 14.4306 13.3662C14.5083 13.4587 14.5653 13.5675 14.6016 13.6927C14.6378 13.8124 14.656 13.9403 14.656 14.0763C14.656 14.3538 14.6042 14.6068 14.5006 14.8354C14.4021 15.0639 14.2675 15.2707 14.0965 15.4557C13.9256 15.6407 13.7287 15.8012 13.506 15.9373C13.2884 16.0679 13.0579 16.1794 12.8144 16.2719C12.5761 16.3644 12.3353 16.4324 12.0918 16.476C11.8483 16.5195 11.6204 16.5413 11.408 16.5413C11.1283 16.5413 10.8434 16.5141 10.5533 16.4597C10.2632 16.4052 9.98091 16.3155 9.70637 16.1903C9.437 16.0652 9.18059 15.9019 8.93712 15.7006C8.69884 15.4938 8.48904 15.2408 8.30774 14.9415C8.13161 14.6422 7.98916 14.2912 7.88038 13.8886C7.77678 13.4859 7.72498 13.0207 7.72498 12.4929H6.71485C6.62679 12.4929 6.53873 12.4874 6.45067 12.4765C6.36779 12.4602 6.29268 12.4303 6.22533 12.3867C6.15799 12.3378 6.1036 12.2725 6.06216 12.1909C6.02072 12.1092 6 11.9977 6 11.8562C6 11.6984 6.02072 11.5732 6.06216 11.4807C6.1036 11.3882 6.15799 11.3202 6.22533 11.2767C6.29268 11.2277 6.36779 11.1978 6.45067 11.1869C6.53873 11.176 6.62679 11.1706 6.71485 11.1706H7.72498V10.387H6.71485C6.62679 10.387 6.53873 10.3789 6.45067 10.3625C6.36779 10.3462 6.29268 10.3136 6.22533 10.2646C6.15799 10.2156 6.1036 10.1503 6.06216 10.0687C6.02072 9.98163 6 9.87008 6 9.73405C6 9.57624 6.02072 9.45381 6.06216 9.36675C6.1036 9.27424 6.15799 9.20623 6.22533 9.1627C6.29268 9.11916 6.36779 9.09196 6.45067 9.08107C6.53873 9.07019 6.62679 9.06475 6.71485 9.06475H7.72498C7.72498 8.53693 7.77678 8.07169 7.88038 7.66902C7.98398 7.26091 8.12643 6.90722 8.30774 6.60794C8.48904 6.30322 8.69884 6.0502 8.93712 5.84886C9.17541 5.64209 9.43182 5.47613 9.70637 5.35097C9.98091 5.22582 10.2632 5.13604 10.5533 5.08162C10.8434 5.02721 11.1283 5 11.408 5Z" fill="white"/>
<circle cx="20.4852" cy="16.9464" r="10.4386" fill="url(#paint0_linear_9838_112197)"/>
<path fill-rule="evenodd" clip-rule="evenodd" d="M20.8714 17.8865L19.7947 17.7247C19.0059 17.6033 18.4049 17.3201 18.0043 16.8751C17.5911 16.4166 17.3908 15.7693 17.3908 14.9467C17.3908 13.5173 18.2046 12.398 19.6131 12.0406V11.9125C19.6131 11.481 19.6256 11.3192 19.7258 11.1101C19.851 10.8472 20.1202 10.6719 20.4645 10.6719C20.8088 10.6719 21.078 10.8472 21.2032 11.1101C21.3033 11.3192 21.3159 11.481 21.3159 11.9125V11.953C21.7854 12.0069 22.186 12.1215 22.5616 12.2766C23.1125 12.5126 23.4756 12.9239 23.4756 13.4363C23.4756 13.6656 23.3817 13.9488 23.2127 14.1646C23.0687 14.3533 22.8496 14.4882 22.5741 14.4882C22.3237 14.4882 22.0358 14.3668 21.7979 14.2589C21.416 14.0836 20.9841 13.9892 20.5834 13.9892C19.8197 13.9892 19.5067 14.4477 19.5067 14.7984C19.5067 14.9872 19.5443 15.1625 19.682 15.3108C19.7947 15.4322 19.9825 15.5468 20.2955 15.594L21.3722 15.7558C22.1735 15.8772 22.7494 16.1469 23.125 16.5514C23.6008 17.0504 23.7886 17.7651 23.7886 18.6551C23.7886 20.2599 22.7306 21.2713 21.3159 21.5747V21.9455C21.3159 22.3771 21.3033 22.5389 21.2032 22.7479C21.078 23.0109 20.8088 23.1862 20.4645 23.1862C20.1202 23.1862 19.851 23.0109 19.7258 22.7479C19.6256 22.5389 19.6131 22.3771 19.6131 21.9455V21.6489C19.1436 21.6084 18.7054 21.5275 18.3048 21.3522C17.5786 21.042 17.1404 20.6779 17.1404 19.9767C17.1404 19.7205 17.2531 19.4103 17.4409 19.208C17.6161 19.0192 17.8165 18.9518 18.0418 18.9518C18.2735 18.9518 18.4613 19.0395 18.8932 19.235C19.3314 19.4373 19.8134 19.5856 20.3581 19.5856C21.222 19.5856 21.6351 19.262 21.6351 18.7091C21.6351 18.4798 21.5851 18.291 21.4598 18.1427C21.3472 18.0213 21.1594 17.9269 20.8714 17.8865Z" fill="white"/>
<defs>
<linearGradient id="paint0_linear_9838_112197" x1="10.0466" y1="6.50781" x2="30.9238" y2="27.385" gradientUnits="userSpaceOnUse">
<stop stop-color="#FF4F42"/>
<stop offset="1" stop-color="#FF8E3C"/>
</linearGradient>
</defs>
</svg>
